<svg xmlns="http://www.w3.org/2000/svg" viewBox="0 0 85.6 88.2">
  <defs/>
  <path fill="#fff" fill-rule="evenodd" d="M34.5 37.7c-8.5 0-10.8-12.1-11.8-17.3l-.3-1.3c-1.4-6.4-4-8.2-4-8.3a.8.8 0 01.3-1.4c1 0 2-.2 2.9-.3a30.4 30.4 0 013.7-.3c3 0 7.2.7 16 5.8 3.8 2.2 6 5 6.3 8.3.7 6.3-5.6 12-5.9 12.3a.7.7 0 010 .1 14 14 0 01-7.2 2.4zm-14-26.9a18.4 18.4 0 013.5 8l.2 1.3c1 5.2 3.2 16 10.3 16a12.4 12.4 0 006.2-2c.6-.6 5.9-5.8 5.3-11-.3-2.8-2.2-5.2-5.6-7.1-8.4-5-12.2-5.6-15.1-5.6a29.2 29.2 0 00-3.5.3l-1.3.1zm20.3 36a.8.8 0 01-.7-.8c0-.2 0-12.5-2.7-18.4-2.5-5.4-3.9-7.8-12.5-13.8a.8.8 0 01-.3-1 .8.8 0 01.8-.5c.2 0 4.7 0 13.6 4.9a8 8 0 014.5 5.5c.9 4.4-2.5 8.8-3 9.4A76.6 76.6 0 0141.5 46a.8.8 0 01-.8.7zM28.7 14.4c6.4 4.9 7.9 7.6 10.1 12.4a20 20 0 011.1 3.2c1-1.5 2.6-4.4 2-7.1a6.5 6.5 0 00-3.6-4.5 47 47 0 00-9.6-4zm23.8 30c-3.1 0-5.7-2-7.6-5.9a.8.8 0 010-.1c-.1-.3-1.9-7 1.4-11.1 1.7-2.3 4.4-3.4 8.3-3.2 10.8.4 13.3 2.5 16.2 4.9l1.9 1.4a.8.8 0 01.3.9.8.8 0 01-.8.5s-2.6.1-6.4 4l-.8.7c-2.6 2.8-7.5 8-12.5 8zM46.4 38c1.6 3.4 3.6 5 6 5 4.4 0 9.2-5 11.5-7.5l.8-.7a16 16 0 015.7-4l-.6-.5c-2.8-2.3-5-4.1-15.3-4.5-3.2-.2-5.6.7-7 2.5-2.6 3.4-1.3 9-1.1 9.7zm-5.6 9.1a.8.8 0 01-.7-1.2c.3-.3 5.7-9 10.6-12 4.2-2.8 6.5-4 15.6-4.4a.8.8 0 01.8.7.8.8 0 01-.8.8c-8.6.5-10.7 1.5-14.8 4.2a47.9 47.9 0 00-10 11.6.8.8 0 01-.7.3zM48 37L15.2 88.2a.8.8 0 01-.6-.3.8.8 0 010-1L25 78c2.7-2.4 11.9-2 20.7-1.8 3.8.2 7.4.3 9.9.1 7.6-.4 26-14 28-16.7a1.8 1.8 0 00.4-1.7c-.3-.8-1.4-1.4-3-1.8-2-.4-6.1 1.7-10.5 4a93 93 0 01-10.2 4.5c-8.5 3-19-.8-19.5-1a.8.8 0 01.2-1.5s9.5-1.3 13.7-3.5a6.7 6.7 0 003.6-3.7 4 4 0 00-.4-3.2 15.1 15.1 0 00-3.2.6 65.4 65.4 0 01-7.1 1.5 77.9 77.9 0 01-15.3.3 50.1 50.1 0 00-5.6-.2c-4.2.3-9.5 2.4-10.7 5.3-4.8 12-14.6 14-15 14.1a.8.8 0 11-.3-1.5c.1 0 9.3-2 13.8-13.2 1.7-4 8.3-6 12.1-6.2a50.2 50.2 0 015.8.1 76.4 76.4 0 0015-.3 62.8 62.8 0 007-1.4c2.8-.7 4.2-1 4.9 0a5.6 5.6 0 01.5 4.5 8.2 8.2 0 01-4.4 4.7 45.4 45.4 0 01-10.8 3c3.7 1 10 2 15.2.2a91.6 91.6 0 0010-4.6c5-2.5 9-4.5 11.5-4 2.8.6 3.9 1.8 4.2 2.7a3.3 3.3 0 01-.6 3.2c-2.3 3-20.8 17-29.2 17.4-2.6.2-6.2 0-10-.1-7.8-.3-17.4-.6-19.7 1.4L15.7 88a.8.8 0 01-.5.2zM86.3-31h-.5a.8.8 0 01-.2 0c-2.8-1-4.6-2.6-5.2-4.9-1-3.6 1.2-7.8 2.6-9.5 1.6-2 8-5.6 8.2-5.8a.8.8 0 01.7 0 .8.8 0 01.5.6l1.5 9.7c.5 3.2 0 5.8-1.5 7.5a33.2 33.2 0 01-38.9 53.7zm-.2-1.5c.5 0 3.4 0 5-2 1.2-1.3 1.6-3.4 1.2-6.1L91-49.2a37 37 0 00-6.7 4.8c-1 1.2-3.3 5-2.4 8.1-32.3 53-31 54.3-28.6 55zm-1.7.8h-.1a.8.8 0 01-.7-.9c.8-6.1 5-11.4 5-11.6a.8.8 0 011.2-.2.8.8 0 01.1 1.1s-4 5.2-4.7 10.9a31 31 0 01-33.6 52z"/>
</svg>
