<svg xmlns="http://www.w3.org/2000/svg" viewBox="0 0 56.6 82.6">
  <defs/>
  <path fill="#fff" fill-rule="evenodd" d="M28 71.3h-.5a13.3 13.3 0 01-7-2.4 50.3 50.3 0 01-4.2-3.6h-.1a6.3 6.3 0 00-6-1.8 7.5 7.5 0 00-4 2.2 1.6 1.6 0 01-1.2.5 1.6 1.6 0 01-.4 0 5.6 5.6 0 01-3.2-2.7A10.6 10.6 0 010 58.6a.7.7 0 01-.1-.5l.2-1.4a17.6 17.6 0 01.7-3 12.1 12.1 0 013.4-5.1 18.2 18.2 0 014.9-3 1.6 1.6 0 00.8-1.3l.1-.4 1-5.4.3-2 .4-2.5.7-3.3.5-2.2.4-2.5.3-1.6.5-2.5a67 67 0 011.6-6.5 89.8 89.8 0 00.8-3.3 26 26 0 011-2.7c.3-1 .8-2 1.3-3A13 13 0 0122.2 2C24.4.2 27.1-.4 30.7.2A7.7 7.7 0 0135.4 3a28.3 28.3 0 012.8 4.2 16.5 16.5 0 011.3 3.2l.2.5a157.8 157.8 0 012.5 10l.4 1.8.6 3 .3 1.3a3 3 0 01.1.4l.3 1.5.5 3 .6 3 .3 1.3a3.6 3.6 0 010 .4l.3 1.6.5 3.4.1.7a15.3 15.3 0 00.5 2.4 1.8 1.8 0 00.8.9 15.8 15.8 0 014.3 2.6 17.9 17.9 0 012.8 3.2 12.4 12.4 0 011.9 8.1 9 9 0 01-1.8 5.1 5.8 5.8 0 01-2.3 1.5l-.2.1a1.5 1.5 0 01-.7.2 1.7 1.7 0 01-1.3-.8 1.8 1.8 0 00-.1-.2 5.6 5.6 0 00-2.5-1.4l-.7-.1a20.4 20.4 0 00-2-.4c-1.7-.2-3 .7-4.4 1.8L39 66.6l-3.8 3a8.6 8.6 0 01-4.3 1.4l-1.2.2a12 12 0 01-1.7.1zm-16.3-9.5a8.1 8.1 0 015.5 2.3h.2a48.6 48.6 0 004 3.5 11.7 11.7 0 006.2 2.2 8.4 8.4 0 001.8-.2l1.3-.1a7 7 0 003.5-1.3 50 50 0 005.3-4.2c1.6-1.3 3.3-2.4 5.5-2.2a22.2 22.2 0 012.3.4l.6.2a7.1 7.1 0 013.2 1.8 2.9 2.9 0 01.4.3v.2l.3-.1a4.4 4.4 0 001.6-1 7.5 7.5 0 001.5-4.3 10.9 10.9 0 00-1.6-7.1 16.3 16.3 0 00-2.6-3 14.3 14.3 0 00-3.9-2.3 3.3 3.3 0 01-1.6-1.9 16.6 16.6 0 01-.5-2.6l-.1-.7-.5-3.4-.3-1.6v-.3l-.3-1.2-.7-3-.5-3.1-.2-1.5-.1-.4-.3-1.2a215.2 215.2 0 01-2-9.5l-1.5-5.2-.2-.5a15.5 15.5 0 00-1.1-3A27 27 0 0034 4a6.1 6.1 0 00-3.7-2.1c-3-.5-5.3 0-7.1 1.5a11.4 11.4 0 00-3 3.7L19 10a24.3 24.3 0 00-1 2.5l-.4 2.2-.3 1-.6 2.6-.3 1.3a67.4 67.4 0 00-1.1 5l-.3 1.7-.5 2.5L14 31l-.6 3.3a88 88 0 00-.4 2.5l-.4 2-1 5.4v.4A3.1 3.1 0 019.8 47a16.7 16.7 0 00-4.4 2.8 10.6 10.6 0 00-3 4.4 16.2 16.2 0 00-.6 2.8l-.2 1a.6.6 0 01.1.3 9 9 0 001 4.5A3.9 3.9 0 005 64.6 9 9 0 0110 62a8.2 8.2 0 011.8-.2zm5.1-12.4a.8.8 0 01-.2 0 .8.8 0 01-.5-1c2.5-8.1 3.9-25.8 3.9-26a.8.8 0 01.8-.7.8.8 0 01.8.8c-.1.8-1.4 18.1-4 26.4a.8.8 0 01-.8.5zm-14 31.4a.8.8 0 01-.5-1.4c2.5-2 5.5-8.8 5.5-8.8a.8.8 0 011-.4.8.8 0 01.5 1c-.2.3-3.2 7.2-6 9.4a.8.8 0 01-.5.2zm8.8 1.8a.8.8 0 01-.2 0 .8.8 0 01-.6-1l1.8-8.7a.8.8 0 011.5.3L12.4 82a.8.8 0 01-.8.7zm33.2-.9a.8.8 0 01-.8-.6l-2.2-8.7a.8.8 0 011.6-.4l2.2 8.7a.8.8 0 01-.6 1 .8.8 0 01-.2 0zm11-3a.8.8 0 01-.6-.3L47.3 71a.8.8 0 111.1-1.1l7.9 7.4a.8.8 0 01-.6 1.3z"/>
</svg>
