<svg xmlns="http://www.w3.org/2000/svg" viewBox="0 0 67.2 71.1">
  <defs/>
  <path fill="#fff" fill-rule="evenodd" d="M33.7 71.1A32.2 32.2 0 1166.1 39 32.3 32.3 0 0133.7 71zm0-62.9A30.7 30.7 0 1064.5 39 30.8 30.8 0 0033.7 8.2zm0 54.6a.8.8 0 110-1.6A22.3 22.3 0 1011.3 39a.8.8 0 01-1.6 0 24 24 0 1124 23.9zm-20.4-6.9a.8.8 0 01-.5-1.4l20-16.4V21.6a.8.8 0 011.6 0v16.8a.8.8 0 01-.3.6L13.8 55.7a.8.8 0 01-.5.2zM47 1.6H20.4a.8.8 0 010-1.6H47a.8.8 0 010 1.6zM.8 23.5a.8.8 0 01-.7-1.2l7.5-11.1a.8.8 0 011-.3A.8.8 0 019 12L1.4 23.1a.8.8 0 01-.6.4zm65.6-2.2a.8.8 0 01-.6-.3l-8-9.8a.8.8 0 111.2-1l8 9.8a.8.8 0 010 1.1.8.8 0 01-.6.2zM33.7 7.7a.8.8 0 01-.8-.7V1.4a.8.8 0 011.6 0V7a.8.8 0 01-.8.7z"/>
</svg>
