<svg xmlns="http://www.w3.org/2000/svg" width="61" height="50.91"><path d="M22.831 50.91a.6.6 0 01-.6-.6V27.78L1.185 17.13v25.81a.6.6 0 11-1.194 0V16.15a.618.618 0 01.283-.52.575.575 0 01.581-.02l22.24 11.26a.6.6 0 01.33.54v22.9a.6.6 0 01-.594.6zM60.409 38.5a.6.6 0 01-.6-.61V12.78L23.053 27.97a.604.604 0 01-.45-1.12l37.578-15.53a.586.586 0 01.558.06.6.6 0 01.264.5v26.01a.6.6 0 01-.594.61zM24.365 20.25a.571.571 0 01-.307-.09L8.72 10.84a.6.6 0 01-.289-.53.611.611 0 01.311-.52L26.38.09a.594.594 0 01.809.24.611.611 0 01-.239.82l-16.721 9.2 14.172 8.61L57.857 3.18a.6.6 0 01.793.29.606.606 0 01-.289.8L24.617 20.19a.563.563 0 01-.252.06zm.383-5.05a.507.507 0 01-.289-.08l-11.12-6.21a.608.608 0 01-.234-.82.586.586 0 01.811-.23l10.841 6.05L51.316.08a.6.6 0 01.545 1.07l-26.84 13.98a.534.534 0 01-.273.07zm-.767 4.27a.6.6 0 01-.6-.6v-3.89a.6.6 0 111.193 0v3.89a.6.6 0 01-.593.6zm-14.394-3.1a5.355 5.355 0 01-2.2-.65c-1.263-.65-2.457-1.66-2.018-2.55a1.052 1.052 0 011.025-.52 5.247 5.247 0 012.2.66c1.264.64 2.458 1.65 2.015 2.54a1.032 1.032 0 01-1.022.52zM6.83 13.92a5.644 5.644 0 001.1.72 5.713 5.713 0 001.225.47 5.776 5.776 0 00-2.324-1.19zm12.226 7.97a5.343 5.343 0 01-2.195-.65 4.466 4.466 0 01-2.055-1.84.918.918 0 01.038-.71 1.05 1.05 0 011.024-.52 5.243 5.243 0 012.2.66 6.237 6.237 0 011.524 1.05 1.256 1.256 0 01.492 1.49 1.035 1.035 0 01-1.028.52zm-2.757-2.45a6.16 6.16 0 002.327 1.19 5.2 5.2 0 00-1.1-.73 5.606 5.606 0 00-1.227-.46zm15.06 1.44a1.2 1.2 0 01-1.344-.7.92.92 0 01.067-.71 4.491 4.491 0 012.3-1.5 6.22 6.22 0 011.859-.34 1.214 1.214 0 011.344.69c.308.95-1.022 1.77-2.369 2.22a6.226 6.226 0 01-1.857.34zm2.68-2.04a5.788 5.788 0 00-1.282.28 5.047 5.047 0 00-1.2.55 5.816 5.816 0 001.284-.28 5.026 5.026 0 001.198-.55zm10.125-3.33a1.2 1.2 0 01-1.342-.7 1.238 1.238 0 01.7-1.39 6.327 6.327 0 011.662-.82 6.249 6.249 0 011.862-.34 1.2 1.2 0 011.343.7c.307.94-1.023 1.76-2.369 2.21a6.243 6.243 0 01-1.856.34zm2.681-2.04a5.808 5.808 0 00-1.283.28 5.492 5.492 0 00-1.193.55 5.808 5.808 0 001.283-.28 5.055 5.055 0 001.193-.55zM10.437 42.76a.6.6 0 01-.6-.6V20.94a.6.6 0 111.194 0v21.22a.6.6 0 01-.594.6zm4.6 4.54a.6.6 0 01-.6-.61V23.78a.6.6 0 111.193 0v22.91a.6.6 0 01-.593.61zm4.345 1.93a.6.6 0 01-.6-.6V25.72a.6.6 0 111.194 0v22.91a.6.6 0 01-.594.6z" fill="#b02154" fill-rule="evenodd"/></svg>