<svg xmlns="http://www.w3.org/2000/svg" width="66.031" height="52.88"><path d="M19.47 40.78a21.184 21.184 0 01-5.738-.83A17.106 17.106 0 014.05 33.4a21.027 21.027 0 01-3.622-9.27c-.1-.69-.194-1.39-.286-2.09l-.127-.96-.006-3.56.063-.5c.053-.4.106-.79.178-1.19a1.055 1.055 0 01.682-.81.765.765 0 01.212-.03 1.36 1.36 0 01.725.27 2.945 2.945 0 01.381.34c.043.05.086.09.132.14a2.955 2.955 0 002.792.74 12.692 12.692 0 001.717-.51c.767-.29 1.529-.6 2.29-.91 1.122-.46 2.282-.93 3.448-1.35a22.29 22.29 0 019.741-1.29 4.677 4.677 0 00-1.786-1.12 1.455 1.455 0 01-1.114-1.33 1.909 1.909 0 011.213-1.96 10.488 10.488 0 014.5-.83c.591.02 1.183.07 1.787.13l.207.02c.024-.16.044-.31.064-.47a7.039 7.039 0 01.287-1.43 10.259 10.259 0 014.3-5.07 2.1 2.1 0 012.349-.01 9.9 9.9 0 014.371 5.46 9.773 9.773 0 01.275 1.59v.04a8.563 8.563 0 012.168-.27 13.6 13.6 0 014.047.71 2.083 2.083 0 011.5 1.64 1.538 1.538 0 01-.9 1.71l-.159.08a11.33 11.33 0 00-1.563.87c-.09.07-.178.14-.265.21h.075a24.582 24.582 0 0111.014 1.77l1.457.59c1.186.48 2.414.98 3.638 1.43 1.869.69 3.035.47 4.159-.74a1.4 1.4 0 01.585-.35c.047-.02.094-.03.137-.05a.588.588 0 01.773.24c.021.04.047.07.072.11a1.418 1.418 0 01.266.59c.061.42.1.83.137 1.24l.048.51v3.81a.544.544 0 01-.013.12l-.03.14c-.023.1-.047.21-.064.31-.077.48-.144.97-.211 1.45a30.6 30.6 0 01-.563 3.22 18.787 18.787 0 01-5.813 9.52 16.907 16.907 0 01-7.288 3.8 21.945 21.945 0 01-5.389.61c-.5 0-1-.02-1.494-.04a12.769 12.769 0 01-4.548-.96 83.185 83.185 0 01-3.008-1.34l-.757-.35a8.491 8.491 0 00-7.625.01c-.324.15-.642.32-.96.49-.546.29-1.112.59-1.708.84a18.331 18.331 0 01-7.071 1.42zM1.362 16.4c-.038.25-.072.52-.107.78l-.058.43.006 3.39.122.89c.091.69.182 1.38.284 2.07a19.888 19.888 0 003.416 8.75 15.924 15.924 0 009.029 6.09 18.048 18.048 0 0012.041-.55c.546-.23 1.064-.5 1.611-.79.329-.17.658-.35.993-.51a9.687 9.687 0 018.64-.02l.76.35c.985.45 1.971.91 2.974 1.33a11.616 11.616 0 004.137.86c.481.02.962.04 1.442.04a21.1 21.1 0 005.1-.57 15.587 15.587 0 006.778-3.54 17.565 17.565 0 005.452-8.91 30.085 30.085 0 00.54-3.09c.067-.5.135-.99.214-1.48.021-.13.049-.26.078-.38l.014-.07-.046-4.14c-.028-.29-.054-.59-.091-.89-1.373 1.38-3 1.7-5.26.87-1.244-.46-2.482-.96-3.678-1.45l-1.45-.59a23.54 23.54 0 00-10.488-1.69c-.322.03-.644.07-.967.1l-.5.06a1.222 1.222 0 01-.379-.07l-.1-.04a.6.6 0 01-.365-.45.586.586 0 01.178-.54c.155-.15.3-.3.449-.45a10 10 0 011.091-.98 11.926 11.926 0 011.735-.98l.156-.07a.384.384 0 00.264-.38.912.912 0 00-.684-.76c-2.647-.8-4.353-.85-6.088-.26a1.3 1.3 0 01-.278.04.6.6 0 01-.6-.55c-.034-.2-.063-.46-.093-.71a9.259 9.259 0 00-.238-1.41 8.792 8.792 0 00-3.887-4.79.893.893 0 00-1.013.01 9.177 9.177 0 00-3.845 4.47 5.978 5.978 0 00-.231 1.19c-.026.2-.052.4-.084.6a2.344 2.344 0 00-.028.24l-.018.19a.593.593 0 01-.641.53l-.794-.07c-.58-.05-1.148-.11-1.717-.13a9.439 9.439 0 00-4 .75.721.721 0 00-.479.79c0 .05.008.15.3.25a7.245 7.245 0 013.33 2.62.585.585 0 01.063.65.57.57 0 01-.578.32l-.317-.03c-.277-.02-.555-.05-.831-.07a20.912 20.912 0 00-9.6 1.19c-1.146.41-2.295.88-3.407 1.33-.768.31-1.536.62-2.31.92a12.577 12.577 0 01-1.893.56 4.161 4.161 0 01-3.855-1.03 2.523 2.523 0 01-.18-.19zm44.9 14.66h-3.916a.573.573 0 01-.381-.14h-1.91a1.617 1.617 0 01-1.343-.52 1.4 1.4 0 01-.064-1.28 10.206 10.206 0 013.088-4.93 9.26 9.26 0 015.357-2.2 18.32 18.32 0 018.8 1.65 6.17 6.17 0 01.785.37 1.526 1.526 0 01.78.92 1.367 1.367 0 01-.213 1.06 10.308 10.308 0 01-3.169 3.21 13.871 13.871 0 01-7.814 1.86zm-1.714-1.2h1.714a12.8 12.8 0 007.163-1.67 9.147 9.147 0 002.807-2.83.5.5 0 00.067-.15.822.822 0 00-.22-.16 5.951 5.951 0 00-.613-.29 17.216 17.216 0 00-8.285-1.58 8.07 8.07 0 00-4.68 1.93 8.981 8.981 0 00-2.719 4.37 1.63 1.63 0 00-.054.21c.068.01.179.02.355.03.279 0 .559.01.839.01l1.424-.01a.578.578 0 01.382.14h1.82zm-25.331 1.19h-.011a13.8 13.8 0 01-6.407-1.38 10.755 10.755 0 01-3.984-3.66 1.326 1.326 0 01-.209-1.12 1.593 1.593 0 01.958-.98 19.1 19.1 0 017.48-1.97h.374c4.205 0 6.983 1.41 8.743 4.45a18.071 18.071 0 011.241 2.78 1.325 1.325 0 01-.012 1.13 1.514 1.514 0 01-1.169.59 3.424 3.424 0 01-.488.04l-4.34.01h-1.831a.612.612 0 01-.344.11zm-1.8-7.91h-.351A17.711 17.711 0 0010.054 25a.68.68 0 00-.3.22.241.241 0 00.054.12 9.481 9.481 0 003.551 3.27 12.317 12.317 0 005.524 1.23.634.634 0 01.335-.1h6.515a1.959 1.959 0 00.241-.03 2.236 2.236 0 00.335-.06.271.271 0 01-.021-.06A17 17 0 0025.133 27c-1.526-2.64-3.977-3.86-7.714-3.86zM6.734 52.87a.591.591 0 01-.6-.59V36.05a.6.6 0 111.193 0v16.23a.59.59 0 01-.591.59z" fill="#b02154" fill-rule="evenodd"/></svg>