<svg xmlns="http://www.w3.org/2000/svg" width="32.35" height="54.03"><path d="M17.53 54.02h-2.7a.487.487 0 01-.12-.01l-.79-.15a15.253 15.253 0 01-1.73-.37C5.83 51.69 1.86 47.6.4 41.35a17.738 17.738 0 01.93-10.31 30.659 30.659 0 013.1-6.01c.61-.98 1.23-1.94 1.85-2.91 1.35-2.09 2.74-4.25 4-6.43a37.112 37.112 0 004.38-12.41c.05-.32.1-.63.14-.95.06-.4.12-.8.19-1.2a2.154 2.154 0 01.25-.61c.03-.06.06-.11.09-.16a.588.588 0 01.54-.35h.62a.61.61 0 01.59.46c.05.21.11.42.16.64a13.153 13.153 0 01.34 1.47 37.68 37.68 0 004.48 13.07c1.27 2.22 2.69 4.42 4.06 6.54.56.86 1.11 1.71 1.65 2.57a27.887 27.887 0 014 8.71 16.958 16.958 0 01-.59 10.48 15.625 15.625 0 01-8.98 8.87 18.085 18.085 0 01-2.92.8c-.44.09-.88.18-1.31.29-.06.02-.11.04-.17.06a1.173 1.173 0 01-.27.05zm-2.64-1.19h2.54c.09-.03.17-.05.25-.08.44-.1.89-.2 1.34-.3a17.021 17.021 0 002.73-.73 14.483 14.483 0 008.32-8.22 15.818 15.818 0 00.53-9.77 26.581 26.581 0 00-3.85-8.33c-.54-.86-1.09-1.71-1.64-2.56-1.38-2.14-2.8-4.36-4.1-6.6A38.843 38.843 0 0116.4 2.76c-.07-.39-.16-.77-.27-1.17-.05.31-.09.61-.14.91-.04.33-.09.65-.15.98a38.305 38.305 0 01-4.51 12.8c-1.28 2.21-2.68 4.38-4.04 6.48-.61.97-1.23 1.93-1.84 2.9a30.606 30.606 0 00-2.99 5.78 16.488 16.488 0 00-.88 9.64c1.35 5.8 5.03 9.59 10.94 11.27.52.14 1.05.24 1.61.34.26.05.51.09.76.14zM8.33 42.39a4.457 4.457 0 01-.63-.05 3.782 3.782 0 01-3.14-3.08 8.932 8.932 0 01-.07-1.04l-.02-.44A19.631 19.631 0 018.35 27.2c.85-1.23 1.72-2.45 2.59-3.67l1.29-1.81a1.547 1.547 0 011.25-.75 1.737 1.737 0 01.61.12 1.449 1.449 0 01.82 1.82c-.21.79-.42 1.57-.64 2.36-.33 1.21-.66 2.42-.97 3.65a38.557 38.557 0 00-1.22 8.61 8.066 8.066 0 01-.5 2.75 3.4 3.4 0 01-3.25 2.11zm5.15-20.23a.54.54 0 00-.27.25l-1.29 1.81c-.87 1.22-1.73 2.43-2.58 3.66a18.5 18.5 0 00-3.67 9.89c.01.1.01.25.02.41.01.31.02.61.06.92a2.586 2.586 0 002.14 2.06 2.266 2.266 0 002.57-1.31 6.94 6.94 0 00.42-2.35 39.7 39.7 0 011.25-8.87c.31-1.23.65-2.45.98-3.68.22-.78.43-1.56.64-2.34.09-.33-.06-.39-.11-.41a.663.663 0 00-.16-.04z" fill="#b02154" fill-rule="evenodd"/></svg>