<svg xmlns="http://www.w3.org/2000/svg" width="63.969" height="45"><path d="M31.921 44.98c-10.37 0-19.569-5.95-23.067-14.86a7.72 7.72 0 110-15.26C12.354 5.95 21.554 0 31.921 0s19.58 5.96 23.072 14.88a8.111 8.111 0 011.3-.11 7.72 7.72 0 010 15.44 7.076 7.076 0 01-1.3-.11C51.5 39.02 42.3 44.98 31.921 44.98zM9.238 28.83a.594.594 0 01.565.4c3.178 8.7 12.066 14.54 22.118 14.54s18.955-5.85 22.125-14.57a.593.593 0 01.707-.38 6.639 6.639 0 001.541.18 6.51 6.51 0 000-13.02 6.7 6.7 0 00-1.542.18.591.591 0 01-.706-.38C50.876 7.06 41.985 1.21 31.921 1.21S12.981 7.05 9.803 15.75a.592.592 0 01-.694.39 6.381 6.381 0 00-1.431-.16 6.51 6.51 0 000 13.02 6.353 6.353 0 001.43-.16.57.57 0 01.13-.01zm22.85-17.88c-4.19 0-7.922-1.88-8.665-4.54-.367-1.31-.272-3.84 4.493-6.13a.604.604 0 11.52 1.09c-2.942 1.41-4.31 3.09-3.854 4.72.592 2.11 4.279 4.04 8.831 3.58 3.271-.34 4.584-1.42 4.722-2.32.12-.77-.556-1.6-1.72-2.11a7.789 7.789 0 00-5.734.13.6.6 0 01-.8-.3.6.6 0 01.3-.8 8.9 8.9 0 016.716-.14c1.682.74 2.636 2.07 2.43 3.41-.128.83-.95 2.83-5.788 3.33a14.2 14.2 0 01-1.451.08zm6.555 14.03a2.47 2.47 0 112.457-2.47 2.467 2.467 0 01-2.457 2.47zm0-3.73a1.26 1.26 0 101.253 1.26 1.262 1.262 0 00-1.253-1.26zm-13.247 3.73a2.47 2.47 0 112.457-2.47 2.468 2.468 0 01-2.453 2.47zm0-3.73a1.26 1.26 0 101.253 1.26 1.262 1.262 0 00-1.249-1.26zm6.589 17.17a6.654 6.654 0 01-6.629-6.66.6.6 0 011.2 0 5.426 5.426 0 1010.852 0 .6.6 0 011.2 0 6.653 6.653 0 01-6.623 6.66z" fill="#b02154" fill-rule="evenodd"/></svg>