<svg xmlns="http://www.w3.org/2000/svg" viewBox="0 0 57 57">
  <defs/>
  <path fill="#b02154" fill-rule="evenodd" d="M28.5 44.3a15.7 15.7 0 1115.8-15.8 15.8 15.8 0 01-15.8 15.8zm0-30.3a14.6 14.6 0 1014.6 14.5A14.6 14.6 0 0028.5 14zm0 43c-1.2 0-2-1.7-2.8-3.6-.4-1-1.1-2.7-1.6-2.8-.6 0-1.8 1.2-2.6 2C20.2 54 19 55 18 55a1.2 1.2 0 01-.5 0c-1.1-.5-1.2-2.3-1.2-4.4 0-1.1 0-3-.4-3.3a.5.5 0 00-.3 0 10.4 10.4 0 00-2.9.9 10.5 10.5 0 01-3.3 1 1.5 1.5 0 01-1.1-.4c-1-1-.2-2.6.5-4.5.5-1 1.2-2.8.9-3.2s-2.1-.4-3.2-.4c-2.1 0-4 0-4.4-1.2-.5-1.1.8-2.4 2.2-3.9.8-.8 2.1-2.1 2-2.6 0-.4-1.8-1.2-2.8-1.6-1.8-.8-3.6-1.5-3.6-2.8s1.8-2 3.6-2.8c1-.4 2.7-1.1 2.8-1.6.1-.5-1.2-1.8-2-2.6-1.4-1.5-2.7-2.8-2.2-4s2.3-1 4.4-1c1-.1 3-.1 3.2-.5s-.4-2.1-.9-3.2c-.7-2-1.4-3.6-.5-4.4a1.5 1.5 0 011-.5 10.4 10.4 0 013.4 1 10.4 10.4 0 003 1 .5.5 0 00.2-.1c.4-.3.4-2.1.4-3.3 0-2 0-3.9 1.2-4.3a1.3 1.3 0 01.5-.1c1 0 2.1 1 3.4 2.3.8.9 2 2 2.6 2 .5 0 1.2-1.8 1.6-2.8.8-1.8 1.6-3.6 2.8-3.6s2 1.8 2.8 3.6c.4 1 1.2 2.7 1.6 2.8.6 0 1.8-1.1 2.6-2C36.8 3.2 38 2.1 39 2.1a1.3 1.3 0 01.5 0c1.2.5 1.2 2.4 1.2 4.4 0 1.2 0 3 .4 3.3a.5.5 0 00.3 0 10.4 10.4 0 002.9-.9 10.5 10.5 0 013.3-1 1.5 1.5 0 011.2.5c.8.8.2 2.5-.6 4.4-.4 1-1.1 2.8-.9 3.2s2.2.4 3.3.4c2 0 3.9 0 4.4 1.2s-.8 2.4-2.3 3.9c-.8.8-2 2.1-2 2.6s1.8 1.2 2.8 1.6c1.9.8 3.6 1.6 3.6 2.8s-1.7 2-3.6 2.8c-1 .4-2.7 1.2-2.8 1.6 0 .5 1.2 1.8 2 2.6 1.5 1.5 2.7 2.8 2.3 4-.5 1-2.3 1-4.4 1.1-1.1 0-3 0-3.3.4s.5 2.2.9 3.2c.8 2 1.4 3.6.6 4.5a1.5 1.5 0 01-1.2.4 10.5 10.5 0 01-3.3-1 10.4 10.4 0 00-2.9-1 .5.5 0 00-.3.1c-.4.3-.4 2.2-.4 3.3 0 2 0 3.9-1.2 4.3a1.2 1.2 0 01-.5.1c-1 0-2-1-3.4-2.3-.8-.8-2-2-2.6-2-.4 0-1.2 1.8-1.6 2.8-.8 1.8-1.5 3.6-2.8 3.6zm-4.4-7.6a1 1 0 01.2 0c1.1.2 1.8 1.8 2.5 3.5.4 1 1.2 3 1.7 3s1.3-2 1.7-3c.8-1.7 1.4-3.3 2.5-3.5s2.3 1 3.7 2.4c.8.8 2 2 2.5 2 .5-.2.5-2.3.5-3.3 0-2 0-3.6 1-4.3.8-.5 2.5 0 4.2.8a10.4 10.4 0 003 .9.4.4 0 00.2 0c.3-.4-.4-2.3-.8-3.3-.7-1.8-1.4-3.3-.8-4.3s2.3-.9 4.3-.9c1 0 3 0 3.2-.4s-1.2-2-2-2.6c-1.3-1.4-2.5-2.6-2.3-3.7.2-1.1 1.8-1.8 3.5-2.5 1-.4 3-1.2 3-1.7s-2-1.3-3-1.7c-1.7-.7-3.3-1.4-3.5-2.5-.2-1 1-2.3 2.4-3.7.7-.7 2.1-2.1 2-2.5s-2.3-.5-3.3-.5c-2 0-3.6 0-4.3-1s0-2.4.8-4.2c.4-1 1.1-2.9.8-3.2a.6.6 0 00-.2 0 10.4 10.4 0 00-3 .8c-1.7.8-3.4 1.3-4.2.8-1-.6-1-2.3-1-4.2 0-1 0-3.2-.4-3.3-.6 0-1.8 1.1-2.6 2-1.4 1.3-2.7 2.5-3.7 2.3S31 5.9 30.2 4c-.4-1-1.2-2.9-1.7-2.9s-1.3 1.9-1.7 2.9c-.7 1.8-1.4 3.3-2.5 3.5s-2.2-1-3.6-2.3c-1-.9-2-2-2.6-2-.5.1-.5 2.2-.5 3.3 0 1.9 0 3.6-1 4.2-.8.5-2.4 0-4.2-.8a10.1 10.1 0 00-3-.9.5.5 0 00-.2 0c-.3.4.5 2.3.9 3.3.7 1.8 1.3 3.3.7 4.3s-2.3.9-4.2 1c-1 0-3.1 0-3.3.4-.2.3 1.3 1.8 2 2.5 1.3 1.4 2.5 2.6 2.3 3.7-.2 1.1-1.7 1.8-3.5 2.5-1 .4-2.9 1.2-2.9 1.7s1.9 1.3 2.9 1.7c1.8.8 3.3 1.4 3.5 2.5.2 1-1 2.3-2.3 3.7-.7.7-2.2 2.2-2 2.6.2.4 2.3.4 3.3.4 1.9 0 3.6 0 4.2 1s0 2.4-.7 4.2c-.4 1-1.2 2.9-.9 3.2a.4.4 0 00.3 0 10.5 10.5 0 002.9-.8c1.8-.7 3.4-1.3 4.3-.8.9.7 1 2.3 1 4.3 0 1 0 3 .4 3.2.5 0 1.7-1.1 2.6-2 1.2-1.2 2.4-2.3 3.4-2.3z"/>
</svg>
